<mxfile host="app.diagrams.net" modified="2021-09-09T02:31:05.302Z" agent="5.0 (Windows NT 10.0; Win64; x64) AppleWebKit/537.36 (KHTML, like Gecko) Chrome/93.0.4577.63 Safari/537.36" etag="PhdOBozjuxvteI5PiZy1" version="14.8.5" type="github">
  <diagram id="R2lEEEUBdFMjLlhIrx00" name="Page-1">
    <mxGraphModel dx="1550" dy="876" grid="1" gridSize="10" guides="1" tooltips="1" connect="1" arrows="1" fold="1" page="1" pageScale="1" pageWidth="850" pageHeight="1100" math="0" shadow="0" extFonts="Permanent Marker^https://fonts.googleapis.com/css?family=Permanent+Marker">
      <root>
        <mxCell id="0" />
        <mxCell id="1" parent="0" />
        <object label="" id="II4heR-R-PHSKxjckNO7-7">
          <mxCell style="edgeStyle=none;rounded=0;orthogonalLoop=1;jettySize=auto;html=1;entryX=0.5;entryY=0;entryDx=0;entryDy=0;" edge="1" parent="1" source="II4heR-R-PHSKxjckNO7-5" target="II4heR-R-PHSKxjckNO7-6">
            <mxGeometry relative="1" as="geometry">
              <Array as="points" />
            </mxGeometry>
          </mxCell>
        </object>
        <mxCell id="II4heR-R-PHSKxjckNO7-26" value="1:0" style="edgeLabel;html=1;align=center;verticalAlign=middle;resizable=0;points=[];" vertex="1" connectable="0" parent="II4heR-R-PHSKxjckNO7-7">
          <mxGeometry x="-0.1053" relative="1" as="geometry">
            <mxPoint as="offset" />
          </mxGeometry>
        </mxCell>
        <mxCell id="II4heR-R-PHSKxjckNO7-17" style="edgeStyle=none;rounded=0;orthogonalLoop=1;jettySize=auto;html=1;entryX=0.5;entryY=0;entryDx=0;entryDy=0;" edge="1" parent="1" source="II4heR-R-PHSKxjckNO7-5" target="II4heR-R-PHSKxjckNO7-8">
          <mxGeometry relative="1" as="geometry" />
        </mxCell>
        <mxCell id="II4heR-R-PHSKxjckNO7-27" value="1:0" style="edgeLabel;html=1;align=center;verticalAlign=middle;resizable=0;points=[];" vertex="1" connectable="0" parent="II4heR-R-PHSKxjckNO7-17">
          <mxGeometry x="-0.1149" relative="1" as="geometry">
            <mxPoint as="offset" />
          </mxGeometry>
        </mxCell>
        <mxCell id="II4heR-R-PHSKxjckNO7-18" style="edgeStyle=none;rounded=0;orthogonalLoop=1;jettySize=auto;html=1;entryX=0.5;entryY=0;entryDx=0;entryDy=0;" edge="1" parent="1" source="II4heR-R-PHSKxjckNO7-5" target="II4heR-R-PHSKxjckNO7-9">
          <mxGeometry relative="1" as="geometry" />
        </mxCell>
        <mxCell id="II4heR-R-PHSKxjckNO7-28" value="1:0" style="edgeLabel;html=1;align=center;verticalAlign=middle;resizable=0;points=[];" vertex="1" connectable="0" parent="II4heR-R-PHSKxjckNO7-18">
          <mxGeometry x="-0.1377" y="3" relative="1" as="geometry">
            <mxPoint as="offset" />
          </mxGeometry>
        </mxCell>
        <mxCell id="II4heR-R-PHSKxjckNO7-19" style="edgeStyle=none;rounded=0;orthogonalLoop=1;jettySize=auto;html=1;entryX=0.5;entryY=0;entryDx=0;entryDy=0;" edge="1" parent="1" source="II4heR-R-PHSKxjckNO7-5" target="II4heR-R-PHSKxjckNO7-10">
          <mxGeometry relative="1" as="geometry" />
        </mxCell>
        <mxCell id="II4heR-R-PHSKxjckNO7-29" value="1:0" style="edgeLabel;html=1;align=center;verticalAlign=middle;resizable=0;points=[];" vertex="1" connectable="0" parent="II4heR-R-PHSKxjckNO7-19">
          <mxGeometry x="-0.1112" y="1" relative="1" as="geometry">
            <mxPoint as="offset" />
          </mxGeometry>
        </mxCell>
        <mxCell id="II4heR-R-PHSKxjckNO7-20" style="edgeStyle=none;rounded=0;orthogonalLoop=1;jettySize=auto;html=1;entryX=0.5;entryY=0;entryDx=0;entryDy=0;" edge="1" parent="1" source="II4heR-R-PHSKxjckNO7-5" target="II4heR-R-PHSKxjckNO7-11">
          <mxGeometry relative="1" as="geometry" />
        </mxCell>
        <mxCell id="II4heR-R-PHSKxjckNO7-30" value="1:0" style="edgeLabel;html=1;align=center;verticalAlign=middle;resizable=0;points=[];" vertex="1" connectable="0" parent="II4heR-R-PHSKxjckNO7-20">
          <mxGeometry x="-0.1292" y="4" relative="1" as="geometry">
            <mxPoint as="offset" />
          </mxGeometry>
        </mxCell>
        <mxCell id="II4heR-R-PHSKxjckNO7-21" style="edgeStyle=none;rounded=0;orthogonalLoop=1;jettySize=auto;html=1;entryX=0.5;entryY=0;entryDx=0;entryDy=0;" edge="1" parent="1" source="II4heR-R-PHSKxjckNO7-5" target="II4heR-R-PHSKxjckNO7-12">
          <mxGeometry relative="1" as="geometry" />
        </mxCell>
        <mxCell id="II4heR-R-PHSKxjckNO7-31" value="1:0" style="edgeLabel;html=1;align=center;verticalAlign=middle;resizable=0;points=[];" vertex="1" connectable="0" parent="II4heR-R-PHSKxjckNO7-21">
          <mxGeometry x="-0.1541" y="-3" relative="1" as="geometry">
            <mxPoint as="offset" />
          </mxGeometry>
        </mxCell>
        <mxCell id="II4heR-R-PHSKxjckNO7-22" style="edgeStyle=none;rounded=0;orthogonalLoop=1;jettySize=auto;html=1;entryX=0.5;entryY=0;entryDx=0;entryDy=0;" edge="1" parent="1" source="II4heR-R-PHSKxjckNO7-5" target="II4heR-R-PHSKxjckNO7-14">
          <mxGeometry relative="1" as="geometry" />
        </mxCell>
        <mxCell id="II4heR-R-PHSKxjckNO7-32" value="1:0" style="edgeLabel;html=1;align=center;verticalAlign=middle;resizable=0;points=[];" vertex="1" connectable="0" parent="II4heR-R-PHSKxjckNO7-22">
          <mxGeometry x="-0.2044" y="-3" relative="1" as="geometry">
            <mxPoint x="3" y="4" as="offset" />
          </mxGeometry>
        </mxCell>
        <mxCell id="II4heR-R-PHSKxjckNO7-23" style="edgeStyle=none;rounded=0;orthogonalLoop=1;jettySize=auto;html=1;exitX=0.893;exitY=1.013;exitDx=0;exitDy=0;exitPerimeter=0;" edge="1" parent="1" source="II4heR-R-PHSKxjckNO7-5" target="II4heR-R-PHSKxjckNO7-15">
          <mxGeometry relative="1" as="geometry" />
        </mxCell>
        <mxCell id="II4heR-R-PHSKxjckNO7-33" value="1:0" style="edgeLabel;html=1;align=center;verticalAlign=middle;resizable=0;points=[];" vertex="1" connectable="0" parent="II4heR-R-PHSKxjckNO7-23">
          <mxGeometry x="-0.1771" y="-2" relative="1" as="geometry">
            <mxPoint as="offset" />
          </mxGeometry>
        </mxCell>
        <mxCell id="II4heR-R-PHSKxjckNO7-24" style="edgeStyle=none;rounded=0;orthogonalLoop=1;jettySize=auto;html=1;entryX=0.565;entryY=0.027;entryDx=0;entryDy=0;entryPerimeter=0;exitX=1;exitY=1;exitDx=0;exitDy=0;" edge="1" parent="1" source="II4heR-R-PHSKxjckNO7-5" target="II4heR-R-PHSKxjckNO7-16">
          <mxGeometry relative="1" as="geometry" />
        </mxCell>
        <mxCell id="II4heR-R-PHSKxjckNO7-34" value="1:0" style="edgeLabel;html=1;align=center;verticalAlign=middle;resizable=0;points=[];" vertex="1" connectable="0" parent="II4heR-R-PHSKxjckNO7-24">
          <mxGeometry x="-0.1633" y="3" relative="1" as="geometry">
            <mxPoint x="-4" y="1" as="offset" />
          </mxGeometry>
        </mxCell>
        <mxCell id="II4heR-R-PHSKxjckNO7-25" style="edgeStyle=none;rounded=0;orthogonalLoop=1;jettySize=auto;html=1;entryX=0.5;entryY=0;entryDx=0;entryDy=0;" edge="1" parent="1" source="II4heR-R-PHSKxjckNO7-5" target="II4heR-R-PHSKxjckNO7-5">
          <mxGeometry relative="1" as="geometry">
            <mxPoint x="920" y="150" as="targetPoint" />
            <Array as="points">
              <mxPoint x="920" y="260" />
              <mxPoint x="920" y="170" />
              <mxPoint x="750" y="170" />
            </Array>
          </mxGeometry>
        </mxCell>
        <mxCell id="II4heR-R-PHSKxjckNO7-35" value="0:n" style="edgeLabel;html=1;align=center;verticalAlign=middle;resizable=0;points=[];" vertex="1" connectable="0" parent="II4heR-R-PHSKxjckNO7-25">
          <mxGeometry x="-0.2288" y="-1" relative="1" as="geometry">
            <mxPoint as="offset" />
          </mxGeometry>
        </mxCell>
        <mxCell id="II4heR-R-PHSKxjckNO7-5" value="Cell" style="rounded=0;whiteSpace=wrap;html=1;" vertex="1" parent="1">
          <mxGeometry x="690" y="230" width="120" height="60" as="geometry" />
        </mxCell>
        <mxCell id="II4heR-R-PHSKxjckNO7-6" value="2.5D Model" style="rounded=0;whiteSpace=wrap;html=1;" vertex="1" parent="1">
          <mxGeometry x="100" y="550" width="120" height="60" as="geometry" />
        </mxCell>
        <mxCell id="II4heR-R-PHSKxjckNO7-8" value="Stackup" style="rounded=0;whiteSpace=wrap;html=1;" vertex="1" parent="1">
          <mxGeometry x="250" y="550" width="120" height="60" as="geometry" />
        </mxCell>
        <mxCell id="II4heR-R-PHSKxjckNO7-9" value="Net List" style="rounded=0;whiteSpace=wrap;html=1;" vertex="1" parent="1">
          <mxGeometry x="400" y="550" width="120" height="60" as="geometry" />
        </mxCell>
        <mxCell id="II4heR-R-PHSKxjckNO7-10" value="Port" style="rounded=0;whiteSpace=wrap;html=1;" vertex="1" parent="1">
          <mxGeometry x="540" y="550" width="120" height="60" as="geometry" />
        </mxCell>
        <mxCell id="II4heR-R-PHSKxjckNO7-11" value="Symbol" style="rounded=0;whiteSpace=wrap;html=1;" vertex="1" parent="1">
          <mxGeometry x="690" y="550" width="120" height="60" as="geometry" />
        </mxCell>
        <mxCell id="II4heR-R-PHSKxjckNO7-12" value="Parameter Control" style="rounded=0;whiteSpace=wrap;html=1;" vertex="1" parent="1">
          <mxGeometry x="830" y="550" width="120" height="60" as="geometry" />
        </mxCell>
        <mxCell id="II4heR-R-PHSKxjckNO7-14" value="Equivalent Fomular" style="rounded=0;whiteSpace=wrap;html=1;" vertex="1" parent="1">
          <mxGeometry x="970" y="550" width="120" height="60" as="geometry" />
        </mxCell>
        <mxCell id="II4heR-R-PHSKxjckNO7-15" value="Equivalent Circuit" style="rounded=0;whiteSpace=wrap;html=1;" vertex="1" parent="1">
          <mxGeometry x="1120" y="550" width="120" height="60" as="geometry" />
        </mxCell>
        <mxCell id="II4heR-R-PHSKxjckNO7-16" value="S Parameter" style="rounded=0;whiteSpace=wrap;html=1;" vertex="1" parent="1">
          <mxGeometry x="1275" y="550" width="120" height="60" as="geometry" />
        </mxCell>
      </root>
    </mxGraphModel>
  </diagram>
</mxfile>
